<svg xmlns="http://www.w3.org/2000/svg" xmlns:xlink="http://www.w3.org/1999/xlink" version="1.1" data-diagram-type="DESCRIPTION" style="width:1650px;height:1513px;background:#FFFFFF;" width="1650px" height="1513.125px" viewBox="0 0 1650 1513" zoomAndPan="magnify" preserveAspectRatio="none" contentStyleType="text/css"><?plantuml 1.2026.8?><defs/><g font-family="sans-serif" lengthAdjust="spacing"><!--entity User--><g class="entity" data-qualified-name="User" id="ent0001" data-source-line="21"><rect x="876.563" y="22.5" width="324.375" height="121.639" fill="#F7F8FA" style="stroke:#181818;stroke-width:0.938;" rx="5.625" ry="5.625"/><text x="895.313" y="74.977" fill="#000" font-size="31.875" textLength="159.375" font-family="Microsoft YaHei">用户服务端</text><text x="895.313" y="117.047" fill="#000" font-size="31.875" textLength="286.875" font-family="Microsoft YaHei">提交图文与操作反馈</text></g><!--entity Human--><g class="entity" data-qualified-name="Human" id="ent0002" data-source-line="22"><rect x="1235.625" y="22.5" width="292.5" height="121.639" fill="#F7F8FA" style="stroke:#181818;stroke-width:0.938;" rx="5.625" ry="5.625"/><text x="1254.375" y="74.977" fill="#000" font-size="31.875" textLength="159.375" font-family="Microsoft YaHei">人工客服端</text><text x="1254.375" y="117.047" fill="#000" font-size="31.875" textLength="255" font-family="Microsoft YaHei">接单、补问、续聊</text></g><!--entity Admin--><g class="entity" data-qualified-name="Admin" id="ent0003" data-source-line="23"><rect x="1283.438" y="178.125" width="324.375" height="121.639" fill="#F7F8FA" style="stroke:#181818;stroke-width:0.938;" rx="5.625" ry="5.625"/><text x="1302.188" y="230.602" fill="#000" font-size="31.875" textLength="159.375" font-family="Microsoft YaHei">知识审核端</text><text x="1302.188" y="272.672" fill="#000" font-size="31.875" textLength="286.875" font-family="Microsoft YaHei">来源核对与版本发布</text></g><!--entity Api--><g class="entity" data-qualified-name="Api" id="ent0006" data-source-line="27"><rect x="802.5" y="333.75" width="473.073" height="121.639" fill="#F0F5FA" style="stroke:#4D6F91;stroke-width:0.938;" rx="5.625" ry="5.625"/><text x="821.25" y="386.227" fill="#000" font-size="31.875" textLength="127.5" font-family="Microsoft YaHei">业务入口</text><text x="821.25" y="428.297" fill="#000" font-size="31.875" textLength="435.573" font-family="Microsoft YaHei">身份权限 · 会话归属 · 输入事件</text></g><!--entity Flow--><g class="entity" data-qualified-name="Flow" id="ent0007" data-source-line="28"><rect x="754.688" y="525" width="568.698" height="121.639" fill="#F0F5FA" style="stroke:#4D6F91;stroke-width:0.938;" rx="5.625" ry="5.625"/><text x="773.438" y="577.477" fill="#000" font-size="31.875" textLength="223.125" font-family="Microsoft YaHei">有状态服务编排</text><text x="773.438" y="619.547" fill="#000" font-size="31.875" textLength="531.198" font-family="Microsoft YaHei">读取当前版本 · 等待与恢复 · 预算控制</text></g><!--entity Agent--><g class="entity" data-qualified-name="Agent" id="ent0008" data-source-line="29"><rect x="802.5" y="753.75" width="473.073" height="121.639" fill="#F0F5FA" style="stroke:#4D6F91;stroke-width:0.938;" rx="5.625" ry="5.625"/><text x="821.25" y="806.227" fill="#000" font-size="31.875" textLength="159.375" font-family="Microsoft YaHei">服务智能体</text><text x="821.25" y="848.297" fill="#000" font-size="31.875" textLength="435.573" font-family="Microsoft YaHei">图文理解 · 只读检索 · 单步提案</text></g><!--entity Verify--><g class="entity" data-qualified-name="Verify" id="ent0009" data-source-line="30"><rect x="296.25" y="753.75" width="473.073" height="121.639" fill="#FFF6E6" style="stroke:#4D6F91;stroke-width:0.938;" rx="5.625" ry="5.625"/><text x="315" y="806.227" fill="#000" font-size="31.875" textLength="191.25" font-family="Microsoft YaHei">独立验效内核</text><text x="315" y="848.297" fill="#000" font-size="31.875" textLength="435.573" font-family="Microsoft YaHei">证据重审 · 反例搜索 · 复测条件</text></g><!--entity Commit--><g class="entity" data-qualified-name="Commit" id="ent0010" data-source-line="31"><rect x="180.938" y="982.5" width="568.698" height="121.639" fill="#F0F5FA" style="stroke:#4D6F91;stroke-width:0.938;" rx="5.625" ry="5.625"/><text x="199.688" y="1034.977" fill="#000" font-size="31.875" textLength="286.875" font-family="Microsoft YaHei">提交门禁与事务服务</text><text x="199.688" y="1077.047" fill="#000" font-size="31.875" textLength="531.198" font-family="Microsoft YaHei">来源与权限校验 · 版本复查 · 幂等提交</text></g><!--entity DB--><g class="entity" data-qualified-name="DB" id="ent0011" data-source-line="32"><path d="M253.125,1230 C253.125,1211.25 439.18,1211.25 439.18,1211.25 C439.18,1211.25 625.235,1211.25 625.235,1230 L625.235,1331.014 C625.235,1349.764 439.18,1349.764 439.18,1349.764 C439.18,1349.764 253.125,1349.764 253.125,1331.014 L253.125,1230" style="stroke:#408170;stroke-width:0.938;" fill="#EDF7F3"/><path d="M253.125,1230 C253.125,1248.75 439.18,1248.75 439.18,1248.75 C439.18,1248.75 625.235,1248.75 625.235,1230" style="stroke:#408170;stroke-width:0.938;" fill="none"/><text x="271.875" y="1289.977" fill="#000" font-size="31.875" textLength="159.375" font-family="Microsoft YaHei">业务事实库</text><text x="271.875" y="1332.047" fill="#000" font-size="31.875" textLength="334.61" font-family="Microsoft YaHei">会话 · 证据 · 事件 · 工单</text></g><!--entity Pack--><g class="entity" data-qualified-name="Pack" id="ent0012" data-source-line="33"><path d="M658.125,1230 C658.125,1211.25 894.662,1211.25 894.662,1211.25 C894.662,1211.25 1131.198,1211.25 1131.198,1230 L1131.198,1331.014 C1131.198,1349.764 894.662,1349.764 894.662,1349.764 C894.662,1349.764 658.125,1349.764 658.125,1331.014 L658.125,1230" style="stroke:#408170;stroke-width:0.938;" fill="#EDF7F3"/><path d="M658.125,1230 C658.125,1248.75 894.662,1248.75 894.662,1248.75 C894.662,1248.75 1131.198,1248.75 1131.198,1230" style="stroke:#408170;stroke-width:0.938;" fill="none"/><text x="676.875" y="1289.977" fill="#000" font-size="31.875" textLength="318.75" font-family="Microsoft YaHei">审核知识与产品服务包</text><text x="676.875" y="1332.047" fill="#000" font-size="31.875" textLength="435.573" font-family="Microsoft YaHei">适用资料 · 动作边界 · 验证规程</text></g><!--entity Run--><g class="entity" data-qualified-name="Run" id="ent0013" data-source-line="34"><path d="M1165.313,1230 C1165.313,1211.25 1354.037,1211.25 1354.037,1211.25 C1354.037,1211.25 1542.761,1211.25 1542.761,1230 L1542.761,1331.014 C1542.761,1349.764 1354.037,1349.764 1354.037,1349.764 C1354.037,1349.764 1165.313,1349.764 1165.313,1331.014 L1165.313,1230" style="stroke:#408170;stroke-width:0.938;" fill="#EDF7F3"/><path d="M1165.313,1230 C1165.313,1248.75 1354.037,1248.75 1354.037,1248.75 C1354.037,1248.75 1542.761,1248.75 1542.761,1230" style="stroke:#408170;stroke-width:0.938;" fill="none"/><text x="1184.063" y="1289.977" fill="#000" font-size="31.875" textLength="223.125" font-family="Microsoft YaHei">运行与恢复记录</text><text x="1184.063" y="1332.047" fill="#000" font-size="31.875" textLength="339.948" font-family="Microsoft YaHei">任务 · 检查点 · 调用预算</text></g><g class="link" data-entity-1="ent0001" data-entity-2="ent0006" id="lnk14" data-link-type="dependency"><polygon points="1038.75,333.705,1046.25,316.83,1038.75,324.33,1031.25,316.83,1038.75,333.705" fill="#536477" style="stroke:#536477;stroke-width:1.875;stroke-linejoin:miter;stroke-miterlimit:10;"/><path d="M1038.75,144.602 C1038.75,199.053 1038.75,269.937 1038.75,324.33" style="stroke:#536477;stroke-width:1.875;" fill="none"/></g><g class="link" data-entity-1="ent0002" data-entity-2="ent0006" id="lnk15" data-link-type="dependency"><polygon points="1098.609,333.533,1115.925,327.116,1105.319,326.986,1105.449,316.38,1098.609,333.533" fill="#536477" style="stroke:#536477;stroke-width:1.875;stroke-linejoin:miter;stroke-miterlimit:10;"/><path d="M1305.456,144.818 C1292.021,155.704 1278.292,167.109 1265.625,178.125 C1207.315,228.833 1150.334,283.062 1105.319,326.986" style="stroke:#536477;stroke-width:1.875;" fill="none"/></g><g class="link" data-entity-1="ent0003" data-entity-2="ent0012" id="lnk16" data-link-type="dependency"><polygon points="1131.27,1211.459,1149.598,1213.722,1140.239,1208.73,1145.231,1199.371,1131.27,1211.459" fill="#536477" style="stroke:#536477;stroke-width:1.875;stroke-linejoin:miter;stroke-miterlimit:10;"/><path d="M1469.726,300.088 C1487.779,349.751 1509.375,423.027 1509.375,489.375 C1509.375,489.375 1509.375,489.375 1509.375,1045.313 C1509.375,1087.496 1313.487,1156.017 1140.239,1208.73" style="stroke:#536477;stroke-width:1.875;" fill="none"/><text x="1513.125" y="710.166" fill="#000" font-size="24.375" textLength="121.875" font-family="Microsoft YaHei">审核后发布</text></g><g class="link" data-entity-1="ent0006" data-entity-2="ent0007" id="lnk17" data-link-type="dependency"><polygon points="1038.75,524.479,1046.25,507.604,1038.75,515.104,1031.25,507.604,1038.75,524.479" fill="#536477" style="stroke:#536477;stroke-width:1.875;stroke-linejoin:miter;stroke-miterlimit:10;"/><path d="M1038.75,455.889 C1038.75,477.775 1038.75,493.194 1038.75,515.104" style="stroke:#536477;stroke-width:1.875;" fill="none"/></g><g class="link" data-entity-1="ent0007" data-entity-2="ent0008" id="lnk18" data-link-type="dependency"><polygon points="1038.75,753.31,1046.25,736.435,1038.75,743.935,1031.25,736.435,1038.75,753.31" fill="#536477" style="stroke:#536477;stroke-width:1.875;stroke-linejoin:miter;stroke-miterlimit:10;"/><path d="M1038.75,646.929 C1038.75,679.74 1038.75,711.062 1038.75,743.935" style="stroke:#536477;stroke-width:1.875;" fill="none"/><text x="1042.5" y="710.166" fill="#000" font-size="24.375" textLength="170.625" font-family="Microsoft YaHei">构造受限上下文</text></g><g class="link" data-entity-1="ent0007" data-entity-2="ent0009" id="lnk19" data-link-type="dependency"><polygon points="665.501,753.701,683.967,753.701,674.068,749.893,677.875,739.994,665.501,753.701" fill="#536477" style="stroke:#536477;stroke-width:1.875;stroke-linejoin:miter;stroke-miterlimit:10;"/><path d="M905.739,646.929 C831.621,679.87 748.184,716.953 674.068,749.893" style="stroke:#536477;stroke-width:1.875;" fill="none"/><text x="821.25" y="710.166" fill="#000" font-size="24.375" textLength="170.625" font-family="Microsoft YaHei">当前证据与规则</text></g><g class="link" data-entity-1="ent0008" data-entity-2="ent0012" id="lnk20" data-link-type="dependency"><polygon points="932.053,1210.816,946.443,1199.243,936.342,1202.48,933.105,1192.38,932.053,1210.816" fill="#536477" style="stroke:#536477;stroke-width:1.875;stroke-linejoin:miter;stroke-miterlimit:10;"/><path d="M1030.699,876.122 C1021.714,935.129 1004.902,1027.548 978.75,1104.375 C966.396,1140.669 952.602,1170.882 936.342,1202.48" style="stroke:#536477;stroke-width:1.875;" fill="none"/><text x="1016.25" y="1053.291" fill="#000" font-size="24.375" textLength="97.5" font-family="Microsoft YaHei">只读检索</text></g><g class="link" data-entity-1="ent0009" data-entity-2="ent0012" id="lnk21" data-link-type="dependency"><polygon points="864.305,1210.904,864.343,1192.437,860.515,1202.329,850.624,1198.501,864.305,1210.904" fill="#536477" style="stroke:#536477;stroke-width:1.875;stroke-linejoin:miter;stroke-miterlimit:10;"/><path d="M667.537,875.756 C684.15,885.782 700.232,897.007 714.375,909.375 C744.13,935.397 745.836,947.928 765,982.5 C793.593,1034.084 793.937,1050.308 817.5,1104.375 C832.833,1139.558 846.265,1170.084 860.515,1202.329" style="stroke:#536477;stroke-width:1.875;" fill="none"/><text x="821.25" y="1053.291" fill="#000" font-size="24.375" textLength="146.25" font-family="Microsoft YaHei">固定规则版本</text></g><g class="link" data-entity-1="ent0008" data-entity-2="ent0010" id="lnk22" data-link-type="dependency"><polygon points="626.251,982.372,644.685,983.469,635.029,979.08,639.418,969.424,626.251,982.372" fill="#536477" style="stroke:#536477;stroke-width:1.875;stroke-linejoin:miter;stroke-miterlimit:10;"/><path d="M896.218,875.748 C839.749,898.907 774.152,925.453 714.375,948.75 C685.967,959.822 664.41,968.061 635.029,979.08" style="stroke:#536477;stroke-width:1.875;" fill="none"/><text x="817.5" y="938.916" fill="#000" font-size="24.375" textLength="97.5" font-family="Microsoft YaHei">候选提案</text></g><g class="link" data-entity-1="ent0009" data-entity-2="ent0010" id="lnk23" data-link-type="dependency"><polygon points="482.851,982.06,494.883,968.052,485.545,973.08,480.516,963.742,482.851,982.06" fill="#536477" style="stroke:#536477;stroke-width:1.875;stroke-linejoin:miter;stroke-miterlimit:10;"/><path d="M514.765,875.679 C504.922,908.49 495.406,940.208 485.545,973.08" style="stroke:#536477;stroke-width:1.875;" fill="none"/><text x="508.125" y="938.916" fill="#000" font-size="24.375" textLength="195" font-family="Microsoft YaHei">允许结论与阻断项</text></g><g class="link" data-entity-1="ent0010" data-entity-2="ent0011" id="lnk24" data-link-type="dependency"><polygon points="446.358,1211.093,455.697,1195.162,447.406,1201.777,440.791,1193.486,446.358,1211.093" fill="#536477" style="stroke:#536477;stroke-width:1.875;stroke-linejoin:miter;stroke-miterlimit:10;"/><path d="M458.308,1104.823 C454.663,1137.242 451.185,1168.169 447.406,1201.777" style="stroke:#536477;stroke-width:1.875;" fill="none"/><text x="459.375" y="1167.666" fill="#000" font-size="24.375" textLength="121.875" font-family="Microsoft YaHei">获准后写入</text></g><g class="link" data-entity-1="ent0007" data-entity-2="ent0013" id="lnk25" data-link-type="dependency"><polygon points="1348.115,1210.963,1354.146,1193.509,1347.314,1201.622,1339.201,1194.79,1348.115,1210.963" fill="#536477" style="stroke:#536477;stroke-width:1.875;stroke-linejoin:miter;stroke-miterlimit:10;"/><path d="M1186.398,647.148 C1229.489,672.773 1270.674,707.688 1291.875,753.75 C1310.606,794.445 1335.957,1069.118 1347.314,1201.622" style="stroke:#536477;stroke-width:1.875;" fill="none"/><text x="1327.5" y="938.916" fill="#000" font-size="24.375" textLength="146.25" font-family="Microsoft YaHei">保存执行位置</text></g><g class="link" data-entity-1="ent0006" data-entity-2="ent0011" id="lnk26" data-link-type="dependency"><polygon points="253.107,1250.853,238.576,1239.457,244.016,1248.562,234.911,1254.003,253.107,1250.853" fill="#536477" style="stroke:#536477;stroke-width:1.875;stroke-linejoin:miter;stroke-miterlimit:10;"/><path d="M802.376,416.491 C498.976,445.323 11.25,504.107 11.25,584.063 C11.25,584.063 11.25,584.063 11.25,1045.313 C11.25,1163.066 128.646,1219.495 244.016,1248.562" style="stroke:#536477;stroke-width:1.875;" fill="none"/><text x="15" y="824.541" fill="#000" font-size="24.375" textLength="243.75" font-family="Microsoft YaHei">持久化输入与读取进展</text></g><g class="legend" data-source-line="52"><rect x="520.313" y="1391.25" width="596.25" height="88.041" fill="none" style="stroke:#000;stroke-width:1.875;" rx="5.625" ry="5.625"/><text x="529.688" y="1428.4" fill="#000" font-size="26.25" textLength="577.5" font-family="Microsoft YaHei">模型不直接写业务结论；业务事实以数据库为准。</text><text x="529.688" y="1463.046" fill="#000" font-size="26.25" textLength="577.5" font-family="Microsoft YaHei">本图为目标架构，不表示所有模块已经集成验收。</text></g><?plantuml-src RLJVJzjM57xtN-6rpvNAA3-sXqb06lLbqxHfawQn1qDCi4Zio352x2a14XA2awnfGaC89K1AL8gXKqiIXmHf_qfzh-sd_Wixzru3feI7YEjpxdVE-Rxlt6zYgX2E2dn4M5MMDJuU5JL15hZuaYJ715M8yg6On8zCFlL_4HU4vOWML6Jj9o4gyZzAyweILnOq_W_XXIWDp_nL-blaHoPymIbLLLRkGgE-K7nH22ahaXpc5uH8NFH5L6LP3iqhgYog_BZl-vmmlnIcmHabegZyogAa-U_DAz6O8ejGJ5kDYBmgpiEOuOZuTJ_izkEnqV5d4_vcOu0lXCLfHGs9gfSqCnCO2mI797tLo-CW_HlMpJsyPu7nu7SZGzCU83uDZWMd_4mBcZ0dn1_MVXu8JWH7XsNUA_rqScJ2hx6iXCIu6EE_dVIJByXBvEFe6ASfCLvJ-3b5qnJ0b0YXaY9pt2sp_2FxLGjdsdXFHriD-_HyLiQ5ecKUeze0LpQjJXwNTAk_Xmgw-pRpY1VY_6znaSms4Po4sNn0bccYTXCPXu35WF9Df9S_9v9Ee-dk6F2FtJjpabiKvSLoL927mTXlcivv6XaDVD1XCFKcDejmGkTTwCVEPl3UUrJu1tNMAT9KA2hT8T7kdlovA8L2eloNAeKNjIS_i6eSg_aWI04uxbP76AMp2soWL1CLZcPbnporUdrSNtUhHVw_DczTxJhdTTH_YJxiaxCpA46gPUQitYNhA2RvqV1Urjwwn8caH_9L1UTV0knv3nKgg5z2MPqDHS3iiomQf0ZloKDqh9DFxk66RUpW_0dACFnWH5cvNu3WughfhFUjVcbMPkBPnRHpSaGGKE4TLCD72VlZ8JthPNpM1A5nWsaw5GOWFwITUs-VvjntsxYSGUaKi4yQJcBTS3Tr48UXwjOWXujxDwZ7ElwKm_N63G-_Ywgqi4etQ_pv-BsEgSVSdPRzDWcp0dTa03h6ZU240aevFcX07vGR9ZsKUTEa1RjhG1V3eWLdb6XKqhYRvRaHai0R-yW4PfXsL3Kw3TMJAaS1syIn52emxOFnt4YTITizGILFJRITcfNTn1giaVDf0rUg56Uh1JlZ3BfscJOE_KCvvsJ3RkKe-i_m0FZmdUkYqzY-5TqnBb2_3CtsUb21081qCBEzrgMTNwn3DUOAYlRBCjYN6P_O6TpdETqxiGqX9rAN_vvdyw1YdgqH1qaqJ8r5VjXLOWh8nliRRk805NP03AkpPNLoOAwxD4zbGALMPhp2B30kobGvXk8lxZCZvrtsXsicCdRPPIQu3u89JB8ILJUHPGxsWzmbf9AEqR5x9SSmeHdtTGzNpjn6b_CoI79W6XATV1jjfWaNwIgiyTrSm2g4hUiwEdkDioT4eBvkzurRjkXrl9sqkYcqNV5U0PYRxhLpNKCVoXpaF7XlgFXqsWSXgcH4X7b3tglDuLO3xUUiZcxNFf8NDLrbfcQZVRcg-JrkzPguV07yWzcjZWc3VKwiSMHfQWCuspK37spY_KkGzCiL64vt6YtxsCJP13nIf59z1xN_jNi5jvR6cIBP_rUN108QOctz3m00?></g></svg>